<?xml version="1.0" standalone="no"?>
<!DOCTYPE svg PUBLIC "-//W3C//DTD SVG 20010904//EN"
 "http://www.w3.org/TR/2001/REC-SVG-20010904/DTD/svg10.dtd">
<svg version="1.0" xmlns="http://www.w3.org/2000/svg"
 width="265.000000pt" height="120.000000pt" viewBox="0 0 265.000000 120.000000"
 preserveAspectRatio="xMidYMid meet">

<g transform="translate(0.000000,120.000000) scale(0.100000,-0.100000)"
fill="#556ff2" stroke="none">
<path d="M2086 1059 c-34 -26 -52 -90 -71 -254 -8 -71 -18 -147 -21 -168 l-6
-38 -16 33 c-20 38 -54 48 -82 23 -17 -15 -18 -15 -25 14 -9 41 -51 74 -85 66
-69 -18 -101 -89 -109 -244 l-6 -115 -28 37 c-21 28 -35 37 -57 37 -33 0 -80
-36 -110 -85 -12 -19 -25 -35 -29 -35 -3 0 -17 60 -30 133 -30 167 -47 222
-84 258 -53 54 -107 32 -123 -50 l-7 -32 -29 30 c-38 39 -88 55 -153 48 -143
-15 -243 -138 -253 -309 -4 -74 -5 -77 -25 -66 -13 7 -43 8 -86 3 -99 -12
-130 -10 -148 8 -26 25 -4 79 87 216 115 174 124 194 125 273 0 59 -3 70 -31
105 -88 109 -358 157 -500 88 -78 -38 -120 -138 -85 -203 25 -46 66 -57 204
-55 70 1 127 -1 127 -3 0 -2 -47 -63 -104 -135 -150 -188 -205 -311 -182 -403
11 -44 64 -94 124 -117 68 -26 200 -30 333 -10 102 15 143 37 166 88 10 21 19
40 20 42 2 3 10 -5 19 -17 48 -69 187 -87 282 -38 58 29 87 68 97 128 5 28 2
46 -10 64 -22 33 -45 28 -132 -32 -72 -49 -106 -54 -111 -15 -2 12 -1 34 2 47
6 24 24 31 138 54 31 6 72 21 90 34 l33 22 22 -104 c42 -198 116 -304 196
-281 36 10 103 73 138 129 13 22 26 40 29 40 3 0 20 -30 39 -66 56 -107 101
-120 158 -45 19 24 39 63 45 87 14 50 27 40 29 -21 1 -53 20 -105 45 -121 27
-17 62 -1 78 37 l13 31 6 -42 c3 -24 15 -52 26 -63 17 -18 26 -19 58 -11 47
11 69 48 87 144 8 39 16 73 18 76 3 2 24 -25 48 -62 43 -66 108 -124 140 -124
10 0 23 7 30 15 10 12 15 12 36 -2 24 -15 27 -15 52 4 36 27 51 88 59 238 9
190 -20 325 -70 325 -44 -1 -77 -45 -77 -104 0 -36 0 -36 -44 -36 -37 0 -57
-8 -111 -46 l-67 -45 6 28 c8 42 31 397 31 489 0 67 -4 86 -19 103 -25 27 -75
27 -110 0z m-986 -519 c0 -14 -26 -30 -58 -36 -36 -7 -41 5 -14 28 29 26 72
30 72 8z m1292 -237 c2 -54 3 -99 3 -100 0 -1 -24 28 -54 64 -46 56 -51 67
-37 75 9 5 28 20 44 33 15 13 30 25 34 25 4 0 8 -44 10 -97z"/>
<path d="M1867 852 c-24 -26 -22 -87 3 -112 42 -42 100 -13 100 49 0 69 -63
107 -103 63z"/>
<path d="M2406 848 c-22 -31 -20 -70 5 -102 25 -32 61 -34 89 -4 26 28 26 68
-1 102 -26 33 -71 35 -93 4z"/>
</g>
</svg>
